<svg width="30.000000" height="30.000000" viewBox="0 0 30 30" fill="none" xmlns="http://www.w3.org/2000/svg" xmlns:xlink="http://www.w3.org/1999/xlink">
	<desc>
			Created with Pixso.
	</desc>
	<defs>
		<clipPath id="clip6_8">
			<rect width="30.000000" height="30.000000" fill="white" fill-opacity="0"/>
		</clipPath>
	</defs>
	<rect width="30.000000" height="30.000000" fill="#FFFFFF" fill-opacity="0"/>
	<g clip-path="url(#clip6_8)">
		<path d="M11.8359 21.0234C11.7227 21.0234 11.6094 20.9844 11.5156 20.9053L8.31055 18.1763C8.20117 18.082 8.13672 17.9443 8.13672 17.7988C8.13672 17.6538 8.20117 17.5161 8.31055 17.4219L11.5156 14.6929C11.7246 14.5156 12.0371 14.5405 12.2148 14.749C12.3906 14.957 12.3672 15.27 12.1582 15.4468L9.39648 17.7988L12.1582 20.1509C12.3672 20.3286 12.3906 20.6411 12.2148 20.8491C12.1152 20.9644 11.9766 21.0234 11.8359 21.0234Z" fill="#4985FF" fill-opacity="1.000000" fill-rule="nonzero"/>
		<path d="M18.1641 21.0234C18.0234 21.0234 17.8848 20.9644 17.7871 20.8491C17.6094 20.6411 17.6348 20.3286 17.8418 20.1509L20.6035 17.7988L17.8418 15.4468C17.6348 15.27 17.6094 14.957 17.7871 14.749C17.9629 14.5405 18.2754 14.5156 18.4844 14.6929L21.6895 17.4219C21.7988 17.5161 21.8633 17.6538 21.8633 17.7988C21.8633 17.9443 21.7988 18.082 21.6895 18.1763L18.4844 20.9053C18.3906 20.9844 18.2773 21.0234 18.1641 21.0234Z" fill="#4985FF" fill-opacity="1.000000" fill-rule="nonzero"/>
		<path d="M13.8652 23.0703C13.832 23.0703 13.7969 23.0664 13.7617 23.0591C13.4941 23.0029 13.3242 22.7402 13.3789 22.4727L15.377 12.9888C15.4336 12.7212 15.6953 12.5503 15.9648 12.6064C16.2324 12.6626 16.4023 12.9253 16.3457 13.1934L14.3496 22.6768C14.3008 22.9102 14.0938 23.0703 13.8652 23.0703Z" fill="#4985FF" fill-opacity="1.000000" fill-rule="nonzero"/>
		<path d="M26.6738 28.2368L3.32617 28.2368C1.49219 28.2368 0 26.7451 0 24.9116L0 5.09424C0 3.26025 1.49219 1.76855 3.32617 1.76855L26.6738 1.76855C28.5078 1.76855 30 3.26025 30 5.09424L30 24.9116C30 26.7451 28.5078 28.2368 26.6738 28.2368ZM3.32617 2.75928C2.03711 2.75928 0.990234 3.80664 0.990234 5.09424L0.990234 24.9116C0.990234 26.1987 2.03711 27.2461 3.32617 27.2461L26.6738 27.2461C27.9629 27.2461 29.0098 26.1987 29.0098 24.9116L29.0098 5.09424C29.0098 3.80664 27.9629 2.75928 26.6738 2.75928L3.32617 2.75928Z" fill="#4985FF" fill-opacity="1.000000" fill-rule="nonzero"/>
		<path d="M29.5039 9.69971L0.496094 9.69971C0.220703 9.69971 0 9.47803 0 9.2041C0 8.93115 0.220703 8.70898 0.496094 8.70898L29.5039 8.70898C29.7793 8.70898 30 8.93115 30 9.2041C30 9.47803 29.7793 9.69971 29.5039 9.69971Z" fill="#4985FF" fill-opacity="1.000000" fill-rule="nonzero"/>
		<path d="M8.46289 7.32959C7.59766 7.32959 6.89453 6.62598 6.89453 5.76221C6.89453 4.89795 7.59766 4.19482 8.46289 4.19482C9.32617 4.19482 10.0293 4.89795 10.0293 5.76221C10.0293 6.62598 9.32617 7.32959 8.46289 7.32959ZM8.46289 5.18555C8.14453 5.18555 7.88477 5.44385 7.88477 5.76221C7.88477 6.08057 8.14453 6.33887 8.46289 6.33887C8.7793 6.33887 9.03906 6.08057 9.03906 5.76221C9.03906 5.44385 8.7793 5.18555 8.46289 5.18555Z" fill="#4985FF" fill-opacity="1.000000" fill-rule="nonzero"/>
		<path d="M3.64648 7.31445C2.7832 7.31445 2.08008 6.61133 2.08008 5.74707C2.08008 4.88281 2.7832 4.17969 3.64648 4.17969C4.51172 4.17969 5.21484 4.88281 5.21484 5.74707C5.21484 6.61133 4.51172 7.31445 3.64648 7.31445ZM3.64648 5.17041C3.33008 5.17041 3.07031 5.4292 3.07031 5.74707C3.07031 6.06543 3.33008 6.32373 3.64648 6.32373C3.96484 6.32373 4.22461 6.06543 4.22461 5.74707C4.22461 5.4292 3.96484 5.17041 3.64648 5.17041Z" fill="#4985FF" fill-opacity="1.000000" fill-rule="nonzero"/>
		<path d="M13.2773 7.34424C12.4141 7.34424 11.7109 6.64111 11.7109 5.77686C11.7109 4.91309 12.4141 4.20996 13.2773 4.20996C14.1426 4.20996 14.8457 4.91309 14.8457 5.77686C14.8457 6.64111 14.1426 7.34424 13.2773 7.34424ZM13.2773 5.2002C12.9609 5.2002 12.7012 5.45898 12.7012 5.77686C12.7012 6.09521 12.9609 6.354 13.2773 6.354C13.5957 6.354 13.8555 6.09521 13.8555 5.77686C13.8555 5.45898 13.5957 5.2002 13.2773 5.2002Z" fill="#4985FF" fill-opacity="1.000000" fill-rule="nonzero"/>
	</g>
</svg>
